<svg xmlns="http://www.w3.org/2000/svg" width="322" height="100" fill="none" xmlns:v="https://vecta.io/nano"><path d="M288.621 13.177a3.94 3.94 0 1 1 3.94 3.94c-2.178.003-3.94-1.759-3.94-3.94zM124.422 45.17h-6.957V18.279h-.231c-3.709 9.506-7.652 18.085-11.592 26.892h-3.708c-3.708-8.81-7.42-17.386-10.897-26.892h-.232V45.17h-5.562V10.627h8.579c3.477 8.579 9.274 22.025 10.665 26.428 1.622-4.635 7.883-17.849 11.823-26.428h8.115l-.003 34.543zm16.459-25.269h-.696a12.08 12.08 0 0 0-11.823 12.287v.927a12.76 12.76 0 0 0 12.982 12.519 18.35 18.35 0 0 0 9.738-2.781l-1.854-3.477c-1.994 1.346-4.336 2.086-6.725 2.086h-.024c-4.219-.256-7.42-3.896-7.164-8.115h15.995c.467-7.42-2.778-13.446-10.429-13.446zm4.175 9.969h-9.506v-.927c0-2.945 2.389-5.331 5.331-5.331 3.248-.003 4.407 2.546 4.175 6.258zm18.313-9.274h6.493v3.245h-6.493v12.055c0 4.172 1.159 5.794 3.476 5.794a4.65 4.65 0 0 0 3.013-.927l1.159 3.245c-1.97 1.111-4.219 1.67-6.493 1.622-5.33 0-7.651-2.781-7.651-7.883V23.841h-3.477v-3.245h3.477v-6.029l6.492-1.391v7.42h.004zm16.925 4.172l1.391-1.854c.927-1.159 2.318-3.013 4.172-3.013a5.97 5.97 0 0 1 4.635 2.318l-2.549 4.403a6.31 6.31 0 0 0-3.013-.927c-2.318 0-4.636 1.854-4.636 7.188V45.17h-6.492V20.596h6.492v4.172zm34.776 7.165c-.256-6.909-6.074-12.311-12.983-12.031h-.463a12.53 12.53 0 0 0-12.519 12.519v.024c0 7.164 5.818 12.982 12.982 12.982s12.983-5.818 12.983-12.982v-.511c0 .024 0 .024 0 0zm-12.983 9.993c-4.635 0-6.029-5.562-6.029-9.506s1.391-8.81 6.029-8.81 6.026 4.867 6.026 8.81c0 4.404-1.39 9.506-6.026 9.506zm30.832-22.025a9.72 9.72 0 0 0-7.884 3.94h-.231v-3.245h-6.49v36.861h6.493V41.926a9.27 9.27 0 0 0 7.42 3.708c7.188 0 11.592-8.115 11.592-13.446s-3.249-12.287-10.9-12.287zm-2.086 21.793c-3.477 0-6.026-3.477-6.026-8.579 0-5.794 2.781-9.274 6.493-9.274s5.562 3.94 5.562 8.347-2.553 9.506-6.029 9.506zm28.746-22.256c-7.165 0-12.983 5.818-12.983 12.982s5.818 12.982 12.983 12.982 12.982-5.818 12.982-12.982-5.818-12.982-12.982-12.982zm0 22.488c-4.636 0-6.026-5.562-6.026-9.506s1.39-8.81 6.026-8.81 6.026 4.867 6.026 8.81c.003 4.404-1.388 9.506-6.026 9.506zm17.157-32.921h6.493V45.17h-6.493V9.005zm18.78 11.591h-6.493V45.17h6.493V20.596zm24.802 18.777V29.175c0-7.652-5.562-9.042-9.969-9.042-3.432.024-6.769 1.159-9.506 3.245l2.086 3.245c1.762-1.646 4.08-2.549 6.493-2.549a4.61 4.61 0 0 1 4.635 3.708l-5.794 1.622c-5.794 1.622-9.274 4.404-9.274 9.042 0 3.964 3.221 7.188 7.188 7.188a10.73 10.73 0 0 0 6.261-3.013l1.391-.927a10.14 10.14 0 0 0 .695 3.708h6.956c-.835-1.902-1.254-3.964-1.162-6.029zm-11.823 1.858c-1.81-.14-3.153-1.694-3.013-3.477.048-2.829 2.086-5.239 4.867-5.794l3.708-1.159c.467 7.181-3.009 10.43-5.562 10.43z" fill="#686a6e"/><path d="M76.119 0c-5.232 1.888-9.997 4.874-13.967 8.766-.549-2.192-1.643-4.107-3.834-4.383s-9.311 2.464-15.065 8.49c-.521-2.492-2.658-4.301-5.204-4.383-9.588 0-19.448 13.146-26.295 28.487C5.973 50.89 2.193 65.542.523 80.525h4.383s2.74-23.006 11.503-40.811c7.57-15.378 12.894-20.74 17.379-23.681 1.418-.889 2.43-.808 3.057-.549.477.201.753.576.913.9.256.685.44 1.537.562 2.515-2.877 3.971-5.504 8.081-7.941 12.325C19.425 50.395 24.081 55.6 27.639 55.6s6.299-4.932 6.575-4.932c2.768-4.656 4.986-9.615 6.575-14.792 3.013-8.766 3.286-13.422 3.013-15.886 2.699-3.159 5.774-5.992 9.117-8.47.463-.307 1.275-.75 2.018-.709.205.017.419.051.641.14.821.273 1.37 1.37 1.643 2.74-2.519 3.204-4.819 6.602-6.847 10.133-9.312 17.529-5.477 22.185-2.464 22.185s6.026-4.928 6.026-4.928l-.549 1.094c2.849-4.22 5.068-8.821 6.575-13.695a33.43 33.43 0 0 0 2.74-14.243c3.698-3.834 8.054-6.984 12.873-9.311L76.119 0zM36.678 35.879a45.33 45.33 0 0 1-6.026 14.516c-.494.849-1.288 1.534-2.192 1.919.876-7.175 3.313-14.107 7.12-20.269l2.464-4.107c-.3 2.682-.767 5.314-1.367 7.941zm19.172-7.393a45.38 45.38 0 0 1-5.753 13.146 3.01 3.01 0 0 1-1.643 1.643c-.273-2.74 2.464-10.409 7.12-18.626l1.643-2.464-1.367 6.302z" fill="#e3652a"/><path d="M123.137 89.646l-.678-2.025h-2.843l-.678 2.025h-1.254l2.651-7.679h1.401l2.652 7.679h-1.251zm-1.864-5.784a6.9 6.9 0 0 1-.222-.913h-.02a6.9 6.9 0 0 1-.222.913l-.944 2.863h2.355l-.947-2.863zm5.173-2.546h-1.165v8.326h1.165v-8.326zm2.758 0h-1.166v8.326h1.166v-8.326zm2.556 1.38a.68.68 0 0 1-.487.191.7.7 0 0 1-.491-.191c-.13-.13-.198-.283-.198-.467a.63.63 0 0 1 .198-.467.7.7 0 0 1 .491-.191c.191 0 .354.065.487.191a.61.61 0 0 1 .201.467c.004.184-.065.341-.201.467zm-1.07 1.23h1.165v5.716h-1.165v-5.716zm6.874 5.43c-.504.269-1.189.402-2.058.402-1.65 0-2.471-.596-2.471-1.793 0-.719.354-1.237 1.06-1.547.514-.225 1.305-.368 2.365-.426v-.361c0-.651-.402-.975-1.21-.975a3.69 3.69 0 0 0-1.581.351l-.297-.797c.61-.269 1.271-.402 1.994-.402 1.462 0 2.195.648 2.195 1.943v3.606h.003zm-1.104-2.587c-.763.044-1.295.123-1.602.235-.487.174-.729.491-.729.944 0 .651.446.975 1.346.975.447 0 .774-.048.985-.15v-2.004zm5.931 2.877v-3.821c0-.722-.399-1.08-1.197-1.08-.422 0-.773.058-1.049.17v4.731h-1.156v-5.429c.658-.269 1.391-.402 2.195-.402 1.585 0 2.376.637 2.376 1.909v3.926h-1.169v-.003zm6.353-.28c-.389.262-.876.392-1.462.392-.703 0-1.279-.235-1.732-.709-.521-.545-.784-1.302-.784-2.27s.263-1.721.784-2.26c.453-.474 1.029-.709 1.732-.709.586 0 1.073.129 1.462.392l-.382.835c-.256-.184-.566-.273-.934-.273-.416 0-.757.157-1.019.477-.297.361-.447.869-.447 1.527s.154 1.169.457 1.53a1.26 1.26 0 0 0 1.009.487c.368 0 .678-.092.934-.276l.382.856zm5.6-2.607l-3.797.528c.119 1.033.705 1.551 1.748 1.551.624 0 1.149-.119 1.582-.351l.337.869c-.518.269-1.183.402-1.994.402-.889 0-1.585-.269-2.076-.804-.487-.525-.732-1.247-.732-2.174 0-.883.231-1.599.692-2.144.467-.552 1.094-.828 1.888-.828.736 0 1.315.225 1.741.678.416.453.628 1.063.628 1.834l-.017.44zm-1.105-.617c-.007-.992-.433-1.486-1.271-1.486-.457 0-.811.164-1.074.491-.276.331-.416.791-.422 1.38l2.767-.385zm11.2 3.504h-1.2l-1.019-3.626a5.89 5.89 0 0 1-.167-.828h-.024a7.45 7.45 0 0 1-.18.828l-1.019 3.626h-1.2l-1.698-5.716h1.159l.985 3.776a5.44 5.44 0 0 1 .157.903h.021l.19-.903 1.04-3.776h1.091l1.043 3.776a10.85 10.85 0 0 1 .19.903h.021c.037-.334.088-.634.16-.903l.985-3.776h1.156l-1.691 5.716zm3.841-6.95a.69.69 0 0 1-.491.191c-.187 0-.351-.065-.487-.191s-.198-.283-.198-.467a.63.63 0 0 1 .198-.467c.136-.126.3-.191.487-.191a.7.7 0 0 1 .491.191.62.62 0 0 1 .201.467.61.61 0 0 1-.201.467zm-1.07 1.23h1.166v5.716h-1.166v-5.716zm5.3 5.665c-.184.085-.423.126-.719.126-1.047 0-1.572-.559-1.572-1.677v-3.245h-.773v-.869h.773V82.6l1.135-.351v1.677h1.156v.869h-1.156v3.18c0 .481.256.723.764.723.15 0 .279-.024.388-.075v.968h.004zm4.512.055v-3.797c0-.729-.412-1.094-1.23-1.094-.375 0-.716.089-1.019.266v4.625h-1.159V81.32h1.159v2.822a2.93 2.93 0 0 1 1.281-.307c.672 0 1.197.167 1.572.498s.566.804.566 1.421v3.892h-1.17z" fill="#244c93"/><path d="M224.62 73.937c-2.713 0-5.052 1.786-5.985 4.294l-.215.658-3.78 16.373h8.684c2.983 0 5.512-2.151 6.227-5.051l3.756-16.271h-8.687v-.003z" fill="#17913e"/><path d="M210.161 69.199c-2.907 0-5.361 1.97-6.121 4.656a5.47 5.47 0 0 0-.14.614L198.004 100h8.678c2.972 0 5.473-2.059 6.172-4.843l5.995-25.961h-8.688v.003z" fill="#dd4a2b"/><path d="M193.522 73.937c-2.815 0-5.221 1.915-6.087 4.567a2.47 2.47 0 0 0-.055.181l-.143.569-3.694 16.005h8.895c2.655 0 4.939-1.762 5.825-4.233l.351-1.523 3.592-15.566h-8.684z" fill="#244c93"/><path d="M191.896 79.254l-.003.01h-.14c-.617 0-1.2.221-1.735.661-.518.419-.855.931-.971 1.35h-.003l-1.994 8.654h.112c.631 0 1.22-.221 1.759-.665.538-.436.886-.975 1.022-1.599l.437-1.878h3.963c.617 0 1.217-.232 1.756-.668s.886-.971 1.022-1.592l.028-.113-6.217-.007.412-1.782 5.385-.007c.617 0 1.203-.218 1.735-.654s.869-.978 1.016-1.595l.031-.116h-7.615zm21.974.525c-.341-.341-.788-.518-1.326-.518l-7.597-.007-2.454 10.661h.003l-.003.014h.109c.63 0 1.22-.221 1.759-.665a2.83 2.83 0 0 0 1.025-1.599l.444-1.902 5.259.003c.616 0 1.165-.072 1.7-.501s.914-1.114 1.064-1.745l.46-1.977a2.34 2.34 0 0 0 .058-.484c.01-.508-.157-.941-.501-1.282zm-2.369 3.633l-5.123-.007.413-1.786 5.126.003-.416 1.789zm17.825-3.627c-.337-.344-.78-.515-1.322-.515h-3.347-.211-4.458l-.017.075a2.61 2.61 0 0 0-.058.47c-.011.518.156.958.494 1.302s.784.515 1.326.515h1.677l-1.909 8.299h.112c.628 0 1.217-.221 1.756-.665.538-.436.886-.975 1.026-1.599l1.397-6.036h3.954l.017-.075a2.54 2.54 0 0 0 .054-.484c.01-.515-.153-.948-.491-1.288z" fill="#fff"/><path d="M230.884 93.419a1.84 1.84 0 0 1 1.837-1.834 1.84 1.84 0 0 1 1.834 1.834 1.84 1.84 0 0 1-1.834 1.837c-1.012.003-1.837-.821-1.837-1.837zm3.224 0c0-.855-.62-1.479-1.387-1.479s-1.39.624-1.39 1.479c0 .862.62 1.483 1.39 1.483s1.387-.62 1.387-1.483zm-2.096-1.043h.774c.497 0 .77.174.77.61 0 .355-.204.528-.545.559l.559.91h-.396l-.538-.896h-.235v.896h-.389v-2.079zm.389.89h.341c.228 0 .426-.034.426-.31 0-.245-.222-.283-.423-.283h-.341v.593h-.003zm6.234-3.375V81.67h4.315v1.08h-3.051v2.416h2.778v1.057h-2.778v2.587h3.051v1.08h-4.315zm10.023-.307c-.514.286-1.213.429-2.099.429-.948 0-1.68-.279-2.205-.838-.522-.552-.781-1.316-.781-2.294 0-.961.242-1.721.726-2.28.508-.59 1.217-.886 2.124-.886a3.2 3.2 0 0 1 .985.146v-2.883h1.247v8.606h.003zm-1.247-4.778c-.211-.092-.504-.136-.876-.136-.542 0-.971.208-1.278.624-.286.395-.433.924-.433 1.588 0 .675.147 1.2.44 1.578s.719.566 1.271.566c.389 0 .682-.051.876-.157v-4.063zm7.127 4.778c-.573.286-1.35.429-2.325.429-1.649 0-2.474-.733-2.474-2.202V83.77h1.237v4.066c0 .77.413 1.155 1.237 1.155.467 0 .832-.058 1.091-.167V83.77h1.234v5.815zm5.105.01c-.412.28-.937.419-1.564.419-.75 0-1.363-.252-1.851-.76-.559-.583-.838-1.391-.838-2.427s.279-1.84.838-2.416c.488-.508 1.101-.76 1.851-.76.631 0 1.152.14 1.564.419l-.405.896c-.273-.194-.61-.293-.999-.293-.446 0-.808.17-1.09.511-.317.385-.478.931-.478 1.633s.164 1.248.491 1.636c.286.348.648.522 1.081.522.392 0 .726-.099.998-.293l.402.913zm5.28-.01c-.539.286-1.271.429-2.202.429-1.762 0-2.648-.637-2.648-1.919 0-.77.382-1.326 1.138-1.656.552-.242 1.398-.392 2.533-.453V85.6c0-.699-.433-1.043-1.296-1.043-.596 0-1.162.126-1.69.375l-.317-.852a5.24 5.24 0 0 1 2.134-.43c1.567 0 2.348.692 2.348 2.076v3.858zm-1.179-2.771c-.818.048-1.391.13-1.718.249-.522.191-.781.528-.781 1.009 0 .695.481 1.043 1.442 1.043.477 0 .828-.055 1.057-.16v-2.14zm5.129 3.02c-.198.092-.453.136-.77.136-1.121 0-1.68-.596-1.68-1.793v-3.473h-.829v-.931h.829v-1.418l1.213-.375v1.793h1.237v.931h-1.237v3.405c0 .515.273.774.815.774.16 0 .299-.027.422-.078v1.029zm1.919-7.379a.73.73 0 0 1-.521.205c-.204 0-.379-.068-.522-.205s-.215-.303-.215-.501.072-.365.215-.501.32-.204.522-.204a.74.74 0 0 1 .521.204c.143.136.215.303.215.501s-.072.365-.215.501zm-1.149 1.316h1.251v6.121h-1.251V83.77zm6.824 5.323c-.484.614-1.149.917-1.997.917s-1.514-.303-1.998-.917c-.463-.576-.692-1.333-.692-2.27s.229-1.694.692-2.27c.484-.607 1.149-.907 1.998-.907s1.513.303 1.997.907c.463.576.692 1.333.692 2.27s-.232 1.694-.692 2.27zm-.92-3.868a1.2 1.2 0 0 0-1.081-.59 1.2 1.2 0 0 0-1.077.59c-.245.385-.364.917-.364 1.588s.122 1.203.364 1.588a1.19 1.19 0 0 0 1.077.6c.471 0 .828-.201 1.081-.6.238-.385.361-.913.361-1.588s-.119-1.203-.361-1.588zm6.107 4.666v-4.087c0-.77-.426-1.159-1.281-1.159-.457 0-.832.061-1.125.181v5.065h-1.234V84.08c.702-.286 1.486-.43 2.349-.43 1.697 0 2.542.678 2.542 2.042v4.199h-1.251z" fill="#244c93"/></svg>